<svg width="790" height="586" viewBox="0 0 790 586" fill="none" xmlns="http://www.w3.org/2000/svg">
<g clip-path="url(#clip0_19_20)">
<path d="M420.641 258.465L416.848 264.623L467.493 298.933L471.285 292.775L420.641 258.465Z" fill="#2F2E41"/>
<path d="M473.794 298.837C480.079 288.634 483.201 279.026 480.769 277.378C478.337 275.731 471.271 282.667 464.986 292.87C458.702 303.074 455.579 312.681 458.012 314.329C460.444 315.977 467.51 309.041 473.794 298.837Z" fill="#2F2E41"/>
<path d="M423.148 264.528C429.432 254.324 432.555 244.717 430.123 243.069C427.691 241.421 420.624 248.357 414.34 258.561C408.056 268.764 404.933 278.372 407.365 280.019C409.798 281.667 416.864 274.731 423.148 264.528Z" fill="#2F2E41"/>
<path d="M588.217 586C699.659 586 790 578.773 790 569.859C790 560.944 699.659 553.717 588.217 553.717C476.776 553.717 386.435 560.944 386.435 569.859C386.435 578.773 476.776 586 588.217 586Z" fill="#E6E6E6"/>
<path d="M201.783 508.636C313.224 508.636 403.565 501.41 403.565 492.495C403.565 483.581 313.224 476.354 201.783 476.354C90.3412 476.354 0 483.581 0 492.495C0 501.41 90.3412 508.636 201.783 508.636Z" fill="#E6E6E6"/>
<path d="M754.201 492.46C753.539 518.393 749.397 544.098 741.898 568.819C741.726 569.393 741.547 569.958 741.367 570.532H695.453C695.502 570.018 695.551 569.444 695.6 568.819C698.661 531.907 716.312 307.249 695.208 268.829C697.053 271.946 757.76 375.174 754.201 492.46Z" fill="#E6E6E6"/>
<path d="M750.755 568.819C750.372 569.393 749.972 569.967 749.564 570.532H715.12C715.381 570.044 715.683 569.47 716.034 568.819C721.725 558.048 738.567 525.845 754.201 492.46C771.002 456.584 786.416 419.347 785.117 405.87C785.517 408.909 797.143 501.571 750.755 568.819Z" fill="#E6E6E6"/>
<path d="M428.868 530.904C429.204 544.067 431.306 557.115 435.113 569.662C435.2 569.954 435.291 570.241 435.382 570.532H458.687C458.662 570.271 458.638 569.98 458.613 569.662C457.059 550.926 448.1 436.893 458.812 417.392C457.875 418.974 427.061 471.371 428.868 530.904Z" fill="#E6E6E6"/>
<path d="M430.617 569.662C430.811 569.954 431.014 570.245 431.222 570.532H448.705C448.572 570.284 448.419 569.993 448.241 569.662C445.352 564.195 436.803 547.849 428.868 530.904C420.34 512.694 412.516 493.792 413.175 486.952C412.972 488.495 407.071 535.528 430.617 569.662Z" fill="#E6E6E6"/>
<path d="M458.613 245.884C458.613 245.884 419.678 285.902 436.031 290.802C452.383 295.702 471.072 254.051 471.072 254.051L458.613 245.884Z" fill="#A0616A"/>
<path d="M497.548 380.638L492.875 403.506L527.917 405.139L522.466 380.638H497.548Z" fill="#A0616A"/>
<path d="M608.123 521.927L603.451 544.794L638.492 546.428L633.04 521.927H608.123Z" fill="#A0616A"/>
<path d="M546.606 227.917L549.72 240.984C549.72 240.984 463.285 223.016 467.957 268.751C472.63 314.486 492.876 358.588 492.876 358.588C492.876 358.588 491.318 373.288 494.433 375.739C497.548 378.189 494.433 386.356 494.433 386.356C494.433 386.356 523.245 390.439 524.023 383.089C524.44 378.175 524.178 373.224 523.245 368.388C523.245 368.388 524.802 368.388 523.245 360.221C521.687 352.054 515.396 286.19 510.724 277.206C510.724 277.206 552.057 310.403 573.86 306.319C573.86 306.319 570.745 338.987 583.204 382.272C595.664 425.557 595.663 430.457 595.663 430.457C595.663 430.457 610.459 512.943 606.565 522.744L605.786 526.827H634.598C634.598 526.827 632.262 483.542 634.598 477.826C636.934 472.109 636.934 423.107 623.696 398.606C614.322 381.255 616.068 330.947 621.196 311.062C625.502 294.363 626.589 281.511 624.065 264.416C621.366 246.135 613.305 236.579 603.45 227.917H546.606Z" fill="#2F2E41"/>
<path d="M569.577 105.004C585.059 105.004 597.61 91.8405 597.61 75.6028C597.61 59.365 585.059 46.2017 569.577 46.2017C554.095 46.2017 541.544 59.365 541.544 75.6028C541.544 91.8405 554.095 105.004 569.577 105.004Z" fill="#A0616A"/>
<path d="M562.18 96.4285C562.18 96.4285 570.745 122.563 569.966 127.463C569.188 132.363 594.885 117.663 594.885 117.663C594.885 117.663 584.762 91.5283 587.876 84.178L562.18 96.4285Z" fill="#A0616A"/>
<path d="M593.327 108.679L566.073 120.113L567.63 129.913C567.63 129.913 565.294 133.18 566.073 134.813C566.852 136.447 555.95 142.98 557.507 145.43C559.065 147.88 548.163 157.681 548.942 160.131C549.72 162.581 524.023 177.281 538.04 205.866C538.04 205.866 545.307 215.774 544.397 227.491C544.365 227.903 544.322 228.317 544.27 228.733C542.712 240.984 603.45 227.1 603.45 227.1V213.216C603.45 213.216 608.901 210.766 608.123 200.149C607.344 189.532 602.672 194.432 608.123 188.715C613.574 182.998 613.574 183.815 612.795 178.915C612.484 176.958 612.421 169.922 612.458 162.176C612.53 145.808 607.447 129.874 598 116.846L593.327 108.679Z" fill="#6D2EF3"/>
<path d="M578.532 129.913L527.917 185.448L453.941 246.701L470.293 260.584L606.565 165.031C606.565 165.031 618.246 112.762 578.532 129.913Z" fill="#6D2EF3"/>
<path d="M499.884 392.889C499.884 392.889 494.433 383.089 490.54 386.356L463.285 409.223C463.285 409.223 415.006 423.924 461.728 435.357C461.728 435.357 487.425 439.441 492.876 435.357C498.327 431.274 506.892 432.091 509.228 433.724C511.564 435.358 541.155 432.907 541.155 426.374C541.155 419.84 524.835 391.286 524.835 391.286C524.835 391.286 515.458 402.69 499.884 392.889Z" fill="#2F2E41"/>
<path d="M610.459 534.178C610.459 534.178 605.008 524.377 601.114 527.644L573.86 550.512C573.86 550.512 525.581 565.212 572.303 576.646C572.303 576.646 598 580.729 603.45 576.646C608.901 572.562 617.467 573.379 619.803 575.012C622.139 576.646 651.73 574.196 651.73 567.662C651.73 561.129 635.409 532.574 635.409 532.574C635.409 532.574 626.033 543.978 610.459 534.178Z" fill="#2F2E41"/>
<path d="M535.982 63.9428C535.982 63.9428 540.722 20.2442 581.26 32.6517C581.26 32.6517 609.939 26.5337 620.068 64.0999L630.349 103.485L625.643 100.92L623.563 105.942L616.052 108.099L612.7 101.441L611.287 109.636L559.419 120.635C559.419 120.635 576.961 99.6144 576.836 68.8284L571.67 74.7794L535.982 63.9428Z" fill="#2F2E41"/>
<path d="M257.429 28.4099H192.587V113.215H257.429V28.4099Z" fill="#2F2E41"/>
<path d="M139.043 423.995L130.201 458.124L144.939 469.5L148.868 466.397L155.745 431.235L139.043 423.995Z" fill="#FFB8B8"/>
<path d="M250.061 420.893L247.113 462.261H265.78V423.995L250.061 420.893Z" fill="#FFB8B8"/>
<path d="M191.113 159.237V184.058L227.465 190.263L258.903 176.819L253.008 161.305L191.113 159.237Z" fill="#FFB8B8"/>
<path d="M220.587 179.922L189.149 173.716L181.289 240.94L161.64 324.711C161.64 324.711 132.167 396.071 136.097 412.619L138.061 417.79L136.097 427.098L155.746 435.371L163.605 421.927C163.605 421.927 169.5 431.235 179.324 411.585C189.149 391.935 230.412 269.898 230.412 269.898L237.289 290.582C235.51 296.963 235.174 303.691 236.307 310.232C238.272 320.574 240.236 352.635 240.236 352.635C240.236 352.635 229.43 408.482 244.166 412.619L247.114 425.029L267.745 427.098L271.675 414.687C271.675 414.687 291.324 407.448 286.412 371.25C281.499 335.053 279.535 216.119 279.535 216.119L260.18 165.883L220.587 179.922Z" fill="#2F2E41"/>
<path d="M136.097 456.056C136.097 456.056 131.184 451.919 129.219 452.953C127.254 453.987 106.623 481.911 106.623 481.911C106.623 481.911 85.0089 499.492 100.728 501.561C116.447 503.629 159.675 480.877 159.675 475.706C159.675 470.535 150.592 457.584 150.592 457.584C150.592 457.584 143.956 463.295 136.097 456.056Z" fill="#2F2E41"/>
<path d="M245.149 452.953C245.149 452.953 262.833 451.797 265.78 454.96C268.728 458.124 267.745 473.637 267.745 473.637C267.745 473.637 269.71 501.561 253.991 501.561C238.272 501.561 242.201 482.945 242.201 482.945L245.149 452.953Z" fill="#2F2E41"/>
<path d="M227.465 68.2269C241.029 68.2269 252.026 56.6511 252.026 42.3717C252.026 28.0922 241.029 16.5164 227.465 16.5164C213.9 16.5164 202.903 28.0922 202.903 42.3717C202.903 56.6511 213.9 68.2269 227.465 68.2269Z" fill="#FFB8B8"/>
<path d="M211.254 58.4019C211.254 58.4019 225.008 75.9835 197.5 89.4282C169.991 102.873 217.149 158.72 217.149 158.72C217.149 158.72 272.166 137.002 267.254 94.5993C267.254 94.5993 233.85 88.394 241.71 59.4361L211.254 58.4019Z" fill="#FFB8B8"/>
<path d="M196.517 88.394C196.517 88.394 173.921 85.2914 172.938 104.941C171.956 124.591 172.938 172.165 172.938 172.165C172.938 172.165 163.114 213.533 168.026 249.731C168.026 249.731 162.131 292.133 177.851 290.065C193.57 287.997 181.781 246.628 181.781 246.628L188.658 179.404L185.71 129.762L198.482 99.7704L196.517 88.394Z" fill="#FFB8B8"/>
<path d="M261.549 92.963C261.549 92.963 282.973 92.5309 283.956 109.078C284.938 125.626 277.078 176.302 277.078 176.302L265.289 182.507L254.482 147.344L261.549 92.963Z" fill="#FFB8B8"/>
<path d="M267.745 177.853L265.78 183.024L271.675 198.537C271.675 198.537 248.096 218.187 250.061 222.324C252.026 226.461 262.833 217.153 262.833 217.153L278.552 225.427C278.552 225.427 291.324 210.948 285.429 197.503C282.164 190.275 279.432 182.795 277.258 175.129C277.258 175.129 268.728 174.751 267.745 177.853Z" fill="#FFB8B8"/>
<path d="M192.096 84.7743L189.149 118.903C189.149 118.903 175.395 133.382 191.114 153.032L189.149 168.545C189.149 168.545 225.5 166.477 232.377 168.545C239.254 170.614 260.493 166.88 260.493 166.88L260.868 155.101C260.868 155.101 270.692 140.622 267.745 118.903C264.798 97.1848 267.745 89.9453 267.745 89.9453L260.868 88.9111C260.868 88.9111 256.447 120.455 225.991 123.557C225.991 123.557 188.166 127.177 198.973 84.7743L192.096 84.7743Z" fill="#E6E6E6"/>
<path d="M229.921 0.486175C229.921 0.486175 204.377 -1.18079 198.482 15.5404C192.588 32.2615 182.272 41.04 182.272 41.04C182.272 41.04 166.022 52.9306 174.147 74.157C174.147 74.157 148.868 92.0393 165.57 107.924C165.57 107.924 164.588 123.809 174.412 134.678C174.412 134.678 182.272 138.858 179.324 141.366C176.377 143.875 198.974 142.203 197.009 119.629C195.044 97.0556 208.307 81.1546 208.307 81.1546C208.307 81.1546 195.535 51.8873 201.43 41.8546C205.009 35.7633 206.546 31.221 209.517 28.592C211.172 27.1624 212.706 25.586 214.103 23.8802C215.421 22.1231 217.214 20.8253 219.249 20.1575C221.283 19.4897 223.462 19.4831 225.5 20.1386C234.342 22.6468 236.307 30.1712 236.307 30.1712C236.307 30.1712 242.693 48.1464 253.5 56.507C264.307 64.8675 245.149 79.4984 245.149 79.4984C245.149 79.4984 248.479 96.7242 257.13 106.923C265.78 117.121 254.636 126.01 253.991 127.154C252.517 129.762 246.632 146.237 270.943 146.31C270.943 146.31 276.587 133.842 284.447 126.317C292.307 118.793 286.412 97.0556 286.412 97.0556C286.412 97.0556 298.201 89.5311 285.429 71.1379C285.429 71.1379 289.359 54.4168 278.552 43.5481C278.552 43.5481 263.324 -5.36619 229.921 0.486175Z" fill="#2F2E41"/>
<path d="M200.938 45.9914C202.295 45.9914 203.394 44.1393 203.394 41.8546C203.394 39.5699 202.295 37.7177 200.938 37.7177C199.582 37.7177 198.482 39.5699 198.482 41.8546C198.482 44.1393 199.582 45.9914 200.938 45.9914Z" fill="#FFB8B8"/>
<path d="M83.6254 468.447H23.3338V475.778H83.6254V468.447Z" fill="#2F2E41"/>
<path d="M83.6255 494.107C86.521 494.107 88.8683 484.26 88.8683 472.113C88.8683 459.965 86.521 450.118 83.6255 450.118C80.73 450.118 78.3827 459.965 78.3827 472.113C78.3827 484.26 80.73 494.107 83.6255 494.107Z" fill="#2F2E41"/>
<path d="M23.3338 494.107C26.2293 494.107 28.5766 484.26 28.5766 472.113C28.5766 459.965 26.2293 450.118 23.3338 450.118C20.4383 450.118 18.091 459.965 18.091 472.113C18.091 484.26 20.4383 494.107 23.3338 494.107Z" fill="#2F2E41"/>
<path d="M69.313 468.447H9.02142V475.778H69.313V468.447Z" fill="#2F2E41"/>
<path d="M69.3131 494.107C72.2086 494.107 74.5559 484.26 74.5559 472.113C74.5559 459.965 72.2086 450.118 69.3131 450.118C66.4176 450.118 64.0703 459.965 64.0703 472.113C64.0703 484.26 66.4176 494.107 69.3131 494.107Z" fill="#2F2E41"/>
<path d="M9.02142 494.107C11.9169 494.107 14.2642 484.26 14.2642 472.113C14.2642 459.965 11.9169 450.118 9.02142 450.118C6.12592 450.118 3.77866 459.965 3.77866 472.113C3.77866 484.26 6.12592 494.107 9.02142 494.107Z" fill="#2F2E41"/>
<path d="M755.207 542.346H694.915V549.678H755.207V542.346Z" fill="#2F2E41"/>
<path d="M755.207 568.006C758.102 568.006 760.45 558.159 760.45 546.012C760.45 533.865 758.102 524.018 755.207 524.018C752.311 524.018 749.964 533.865 749.964 546.012C749.964 558.159 752.311 568.006 755.207 568.006Z" fill="#2F2E41"/>
<path d="M694.915 568.006C697.811 568.006 700.158 558.159 700.158 546.012C700.158 533.865 697.811 524.018 694.915 524.018C692.02 524.018 689.672 533.865 689.672 546.012C689.672 558.159 692.02 568.006 694.915 568.006Z" fill="#2F2E41"/>
</g>
<defs>
<clipPath id="clip0_19_20">
<rect width="790" height="586" fill="white"/>
</clipPath>
</defs>
</svg>
