<svg width="335" height="249" viewBox="0 0 335 249" fill="none" xmlns="http://www.w3.org/2000/svg">
<g clip-path="url(#clip0_16_75)">
<path d="M178.373 109.826L176.765 112.442L198.241 127.021L199.849 124.404L178.373 109.826Z" fill="#672121"/>
<path d="M200.913 126.98C203.578 122.645 204.902 118.562 203.87 117.862C202.839 117.162 199.843 120.109 197.178 124.445C194.513 128.781 193.189 132.863 194.22 133.563C195.252 134.263 198.248 131.316 200.913 126.98Z" fill="#672121"/>
<path d="M179.436 112.402C182.101 108.066 183.425 103.984 182.394 103.284C181.363 102.583 178.366 105.531 175.701 109.866C173.036 114.202 171.712 118.284 172.743 118.984C173.775 119.684 176.771 116.737 179.436 112.402Z" fill="#672121"/>
<path d="M249.434 249C296.691 249 335 245.929 335 242.141C335 238.353 296.691 235.282 249.434 235.282C202.177 235.282 163.868 238.353 163.868 242.141C163.868 245.929 202.177 249 249.434 249Z" fill="#727272"/>
<path d="M85.5662 216.127C132.823 216.127 171.132 213.056 171.132 209.268C171.132 205.481 132.823 202.41 85.5662 202.41C38.3092 202.41 0 205.481 0 209.268C0 213.056 38.3092 216.127 85.5662 216.127Z" fill="#727272"/>
<path d="M319.819 209.253C319.539 220.273 317.782 231.195 314.602 241.7C314.529 241.943 314.453 242.184 314.377 242.427H294.907C294.928 242.209 294.949 241.965 294.97 241.7C296.268 226.015 303.753 130.555 294.803 114.229C295.586 115.554 321.329 159.417 319.819 209.253Z" fill="#727272"/>
<path d="M318.358 241.7C318.196 241.943 318.026 242.187 317.853 242.427H303.247C303.358 242.22 303.486 241.976 303.635 241.7C306.048 237.123 313.19 223.439 319.819 209.253C326.944 194.009 333.48 178.187 332.929 172.46C333.099 173.751 338.029 213.125 318.358 241.7Z" fill="#727272"/>
<path d="M181.862 225.589C182.004 231.182 182.896 236.726 184.51 242.058C184.547 242.182 184.585 242.304 184.624 242.427H194.507C194.496 242.317 194.486 242.193 194.475 242.058C193.816 234.097 190.017 185.642 194.56 177.356C194.162 178.028 181.096 200.292 181.862 225.589Z" fill="#727272"/>
<path d="M182.603 242.058C182.686 242.182 182.772 242.305 182.86 242.427H190.274C190.217 242.322 190.152 242.198 190.077 242.058C188.852 239.735 185.227 232.789 181.862 225.589C178.245 217.851 174.928 209.819 175.207 206.913C175.121 207.569 172.619 227.554 182.603 242.058Z" fill="#727272"/>
<path d="M194.475 104.48C194.475 104.48 177.965 121.484 184.899 123.566C191.833 125.648 199.758 107.95 199.758 107.95L194.475 104.48Z" fill="#A0616A"/>
<path d="M210.986 161.739L209.004 171.456L223.864 172.15L221.552 161.739H210.986Z" fill="#A0616A"/>
<path d="M257.875 221.774L255.894 231.491L270.753 232.185L268.441 221.774H257.875Z" fill="#A0616A"/>
<path d="M231.789 96.8453L233.109 102.398C233.109 102.398 196.456 94.7628 198.437 114.196C200.419 133.63 209.004 152.369 209.004 152.369C209.004 152.369 208.344 158.616 209.665 159.657C210.986 160.698 209.665 164.168 209.665 164.168C209.665 164.168 221.882 165.903 222.212 162.78C222.389 160.692 222.278 158.588 221.882 156.533C221.882 156.533 222.543 156.533 221.882 153.063C221.222 149.593 218.554 121.606 216.573 117.789C216.573 117.789 234.1 131.895 243.346 130.159C243.346 130.159 242.025 144.041 247.308 162.433C252.592 180.825 252.591 182.907 252.591 182.907C252.591 182.907 258.866 217.957 257.214 222.122L256.884 223.857H269.102C269.102 223.857 268.111 205.464 269.102 203.035C270.092 200.606 270.092 179.784 264.479 169.374C260.504 162.001 261.244 140.624 263.419 132.175C265.245 125.079 265.705 119.618 264.635 112.354C263.491 104.586 260.072 100.526 255.893 96.8453H231.789Z" fill="#216663"/>
<path d="M241.529 44.6177C248.095 44.6177 253.417 39.0244 253.417 32.1247C253.417 25.2251 248.095 19.6318 241.529 19.6318C234.964 19.6318 229.642 25.2251 229.642 32.1247C229.642 39.0244 234.964 44.6177 241.529 44.6177Z" fill="#A0616A"/>
<path d="M238.393 40.9739C238.393 40.9739 242.025 52.0788 241.694 54.1609C241.365 56.243 252.261 49.9967 252.261 49.9967C252.261 49.9967 247.969 38.8917 249.289 35.7685L238.393 40.9739Z" fill="#A0616A"/>
<path d="M251.601 46.1793L240.044 51.0378L240.704 55.2019C240.704 55.2019 239.713 56.5901 240.044 57.284C240.374 57.9783 235.751 60.7543 236.411 61.7953C237.072 62.8364 232.449 67.001 232.779 68.042C233.109 69.0831 222.212 75.3293 228.156 87.4755C228.156 87.4755 231.238 91.6855 230.852 96.6643C230.838 96.8393 230.82 97.0152 230.798 97.192C230.137 102.398 255.893 96.4981 255.893 96.4981V90.5986C255.893 90.5986 258.205 89.5576 257.875 85.0462C257.545 80.5349 255.563 82.617 257.875 80.1878C260.186 77.7585 260.186 78.1057 259.856 76.0236C259.724 75.192 259.698 72.2024 259.713 68.911C259.744 61.956 257.588 55.1854 253.582 49.6496L251.601 46.1793Z" fill="#FBFFFE"/>
<path d="M245.327 55.2019L223.864 78.7996L192.494 104.827L199.428 110.726L257.214 70.1241C257.214 70.1241 262.168 47.9142 245.327 55.2019Z" fill="#FBFFFE"/>
<path d="M211.976 166.944C211.976 166.944 209.665 162.78 208.014 164.168L196.456 173.885C196.456 173.885 175.984 180.132 195.796 184.99C195.796 184.99 206.693 186.725 209.004 184.99C211.316 183.255 214.948 183.602 215.938 184.296C216.929 184.99 229.477 183.949 229.477 181.173C229.477 178.396 222.557 166.263 222.557 166.263C222.557 166.263 218.58 171.109 211.976 166.944Z" fill="#FBFFFE"/>
<path d="M258.866 226.98C258.866 226.98 256.554 222.815 254.903 224.204L243.346 233.921C243.346 233.921 222.873 240.167 242.685 245.025C242.685 245.025 253.582 246.76 255.893 245.025C258.205 243.29 261.837 243.637 262.828 244.331C263.818 245.025 276.367 243.984 276.367 241.208C276.367 238.432 269.446 226.298 269.446 226.298C269.446 226.298 265.47 231.144 258.866 226.98Z" fill="#FBFFFE"/>
<path d="M227.284 27.1702C227.284 27.1702 229.294 8.60206 246.484 13.8742C246.484 13.8742 258.645 11.2746 262.94 27.237L267.3 43.9723L265.304 42.8824L264.422 45.0163L261.237 45.9329L259.816 43.1038L259.217 46.5859L237.222 51.2596C237.222 51.2596 244.661 42.3276 244.608 29.2462L242.417 31.7749L227.284 27.1702Z" fill="#191919"/>
<path d="M109.163 12.0718H81.6666V48.1067H109.163V12.0718Z" fill="black"/>
<path d="M58.9613 180.162L55.2118 194.664L61.4615 199.497L63.1276 198.179L66.0438 183.238L58.9613 180.162Z" fill="#FFB8B8"/>
<path d="M106.039 178.844L104.788 196.421H112.704V180.162L106.039 178.844Z" fill="#FFB8B8"/>
<path d="M81.0416 67.6621V78.2089L96.4567 80.8455L109.788 75.133L107.288 68.5409L81.0416 67.6621Z" fill="#FFB8B8"/>
<path d="M93.5401 76.4515L80.2087 73.8145L76.8757 102.379L68.5435 137.974C68.5435 137.974 56.0455 168.296 57.712 175.328L58.5448 177.525L57.712 181.48L66.0442 184.996L69.3768 179.283C69.3768 179.283 71.8766 183.238 76.0424 174.889C80.2087 166.539 97.7063 114.684 97.7063 114.684L100.623 123.473C99.8682 126.184 99.7257 129.043 100.206 131.822C101.039 136.217 101.872 149.84 101.872 149.84C101.872 149.84 97.2899 173.57 103.539 175.328L104.789 180.601L113.537 181.48L115.204 176.207C115.204 176.207 123.536 173.131 121.453 157.75C119.37 142.369 118.537 91.8321 118.537 91.8321L110.329 70.4861L93.5401 76.4515Z" fill="#216663"/>
<path d="M57.712 193.785C57.712 193.785 55.6287 192.027 54.7954 192.466C53.9621 192.906 45.2135 204.771 45.2135 204.771C45.2135 204.771 36.0481 212.241 42.7138 213.121C49.3794 213.999 67.7103 204.332 67.7103 202.134C67.7103 199.937 63.8586 194.434 63.8586 194.434C63.8586 194.434 61.0446 196.861 57.712 193.785Z" fill="#FBFFFE"/>
<path d="M103.956 192.466C103.956 192.466 111.455 191.975 112.704 193.319C113.954 194.664 113.537 201.255 113.537 201.255C113.537 201.255 114.371 213.121 107.705 213.121C101.039 213.121 102.705 205.21 102.705 205.21L103.956 192.466Z" fill="#FBFFFE"/>
<path d="M96.4567 28.9906C102.208 28.9906 106.872 24.0719 106.872 18.0044C106.872 11.9368 102.208 7.01806 96.4567 7.01806C90.7044 7.01806 86.0411 11.9368 86.0411 18.0044C86.0411 24.0719 90.7044 28.9906 96.4567 28.9906Z" fill="#FFB8B8"/>
<path d="M89.5824 24.8158C89.5824 24.8158 95.4148 32.2865 83.75 37.9994C72.0848 43.7122 92.0822 67.4425 92.0822 67.4425C92.0822 67.4425 115.412 58.2142 113.329 40.1966C113.329 40.1966 99.1642 37.5599 102.497 25.2553L89.5824 24.8158Z" fill="#FFB8B8"/>
<path d="M83.3332 37.5599C83.3332 37.5599 73.7513 36.2416 73.3345 44.591C72.918 52.9405 73.3345 73.1554 73.3345 73.1554C73.3345 73.1554 69.1686 90.7333 71.2515 106.114C71.2515 106.114 68.7517 124.132 75.4178 123.253C82.0835 122.374 77.0843 104.796 77.0843 104.796L80.0005 76.2314L78.7504 55.1378L84.1664 42.3939L83.3332 37.5599Z" fill="#FFB8B8"/>
<path d="M110.91 39.5013C110.91 39.5013 119.995 39.3177 120.412 46.3488C120.828 53.3803 117.495 74.9133 117.495 74.9133L112.496 77.5499L107.913 62.6086L110.91 39.5013Z" fill="#FFB8B8"/>
<path d="M113.537 75.5723L112.704 77.7696L115.204 84.3613C115.204 84.3613 105.205 92.7109 106.039 94.4687C106.872 96.2266 111.455 92.2715 111.455 92.2715L118.12 95.7872C118.12 95.7872 123.536 89.6349 121.036 83.9219C119.652 80.8506 118.493 77.6723 117.571 74.4149C117.571 74.4149 113.954 74.2543 113.537 75.5723Z" fill="#FFB8B8"/>
<path d="M81.4584 36.0218L80.2088 50.5236C80.2088 50.5236 74.3764 56.676 81.042 65.0255L80.2088 71.6172C80.2088 71.6172 95.6234 70.7385 98.5396 71.6172C101.456 72.4964 110.462 70.9098 110.462 70.9098L110.621 65.9047C110.621 65.9047 114.787 59.7523 113.537 50.5236C112.288 41.2952 113.537 38.2191 113.537 38.2191L110.621 37.7796C110.621 37.7796 108.747 51.1831 95.8316 52.5012C95.8316 52.5012 79.7919 54.0394 84.3746 36.0218H81.4584Z" fill="#FBFFFE"/>
<path d="M97.4981 0.206583C97.4981 0.206583 86.6662 -0.501735 84.1664 6.60334C81.6671 13.7084 77.2926 17.4385 77.2926 17.4385C77.2926 17.4385 70.4017 22.491 73.8471 31.5104C73.8471 31.5104 63.1276 39.1089 70.2101 45.8585C70.2101 45.8585 69.7936 52.6083 73.9595 57.2267C73.9595 57.2267 77.2926 59.0028 76.0425 60.0685C74.7928 61.1346 84.3751 60.4241 83.5418 50.8321C82.7085 41.2403 88.3327 34.4838 88.3327 34.4838C88.3327 34.4838 82.9167 22.0477 85.4165 17.7846C86.9342 15.1964 87.586 13.2663 88.8458 12.1492C89.5476 11.5417 90.1981 10.8719 90.7905 10.147C91.3494 9.40043 92.1097 8.84898 92.9727 8.56522C93.8352 8.28146 94.7592 8.27865 95.6234 8.55719C99.3729 9.62296 100.206 12.8202 100.206 12.8202C100.206 12.8202 102.914 20.4581 107.497 24.0107C112.08 27.5632 103.956 33.78 103.956 33.78C103.956 33.78 105.368 41.0995 109.036 45.4331C112.704 49.7664 107.979 53.5435 107.705 54.0296C107.08 55.1378 104.584 62.1382 114.894 62.1693C114.894 62.1693 117.287 56.8714 120.62 53.6739C123.953 50.4769 121.453 41.2404 121.453 41.2404C121.453 41.2404 126.452 38.0431 121.036 30.2275C121.036 30.2275 122.703 23.1225 118.12 18.5042C118.12 18.5042 111.663 -2.28017 97.4981 0.206583Z" fill="#1A1A1A"/>
<path d="M85.2079 19.5424C85.7833 19.5424 86.2494 18.7554 86.2494 17.7846C86.2494 16.8138 85.7833 16.0268 85.2079 16.0268C84.6329 16.0268 84.1664 16.8138 84.1664 17.7846C84.1664 18.7554 84.6329 19.5424 85.2079 19.5424Z" fill="#FFB8B8"/>
<path d="M35.4614 199.05H9.89471V202.165H35.4614V199.05Z" fill="#2F2E41"/>
<path d="M33.2232 209.692C34.4511 209.692 35.4464 205.507 35.4464 200.346C35.4464 195.184 34.4511 191 33.2232 191C31.9954 191 31 195.184 31 200.346C31 205.507 31.9954 209.692 33.2232 209.692Z" fill="#672121"/>
<path d="M7.22319 209.692C8.45103 209.692 9.4464 205.507 9.4464 200.346C9.4464 195.184 8.45103 191 7.22319 191C5.99535 191 4.99998 195.184 4.99998 200.346C4.99998 205.507 5.99535 209.692 7.22319 209.692Z" fill="#672121"/>
<path d="M29.3922 199.05H3.82553V202.165H29.3922V199.05Z" fill="#672121"/>
<path d="M29.2232 209.692C30.4511 209.692 31.4464 205.507 31.4464 200.346C31.4464 195.184 30.4511 191 29.2232 191C27.9954 191 27 195.184 27 200.346C27 205.507 27.9954 209.692 29.2232 209.692Z" fill="#672121"/>
<path d="M3.82555 209.953C5.05338 209.953 6.04876 205.769 6.04876 200.608C6.04876 195.446 5.05338 191.262 3.82555 191.262C2.59771 191.262 1.60236 195.446 1.60236 200.608C1.60236 205.769 2.59771 209.953 3.82555 209.953Z" fill="#672121"/>
<path d="M320.246 230.451H294.679V233.566H320.246V230.451Z" fill="#672121"/>
<path d="M320.246 241.354C321.474 241.354 322.469 237.17 322.469 232.009C322.469 226.847 321.474 222.663 320.246 222.663C319.018 222.663 318.023 226.847 318.023 232.009C318.023 237.17 319.018 241.354 320.246 241.354Z" fill="#672121"/>
<path d="M294.679 241.354C295.907 241.354 296.902 237.17 296.902 232.009C296.902 226.847 295.907 222.663 294.679 222.663C293.452 222.663 292.456 226.847 292.456 232.009C292.456 237.17 293.452 241.354 294.679 241.354Z" fill="#672121"/>
</g>
<defs>
<clipPath id="clip0_16_75">
<rect width="335" height="249" fill="white"/>
</clipPath>
</defs>
</svg>
